<svg id="SvgjsSvg1154" width="288" height="288" xmlns="http://www.w3.org/2000/svg" version="1.1" xmlns:xlink="http://www.w3.org/1999/xlink" xmlns:svgjs="http://svgjs.com/svgjs"><rect id="SvgjsRect1180" width="288" height="288" rx="0" ry="0" transform="matrix(0.01,0,0,0.01,142.56,142.56)" fill="#161616"></rect><defs id="SvgjsDefs1155"></defs><g id="SvgjsG1156" transform="matrix(0.28,0,0,0.28,103.67999999999999,103.67999999999999)"><svg xmlns="http://www.w3.org/2000/svg" viewBox="0 0 24 24" width="288" height="288"><g data-name="Layer 2"><g data-name="Layer 3"><path fill="none" d="M0 0h24v24H0z"></path><path fill="#161616" d="M1 12C1 4 4 1 12 1s11 3 11 11-3 11-11 11S1 20 1 12" class="color009c00 svgShape"></path><rect width="1.2" height="5.76" x="15.24" y="5.4" fill="#f9aa3a" rx=".6" transform="rotate(-90 15.84 8.28)" class="colorfff svgShape"></rect><rect width="1.2" height="5.76" x="7.56" y="5.4" fill="#f9aa3a" rx=".6" transform="rotate(-90 8.16 8.28)" class="colorfff svgShape"></rect><rect width="1.2" height="5.76" x="7.56" y="5.4" fill="#f9aa3a" rx=".6" class="colorfff svgShape"></rect><rect width="1.2" height="5.76" x="15.24" y="12.84" fill="#f9aa3a" rx=".6" transform="rotate(-90 15.84 15.72)" class="colorfff svgShape"></rect><rect width="1.2" height="1.2" x="15.24" y="12.84" fill="#f9aa3a" rx=".6" class="colorfff svgShape"></rect><rect width="1.2" height="1.2" x="15.24" y="17.4" fill="#f9aa3a" rx=".6" class="colorfff svgShape"></rect><rect width="1.21" height="6.29" x="7.56" y="12.58" fill="#f9aa3a" rx=".6" transform="rotate(-135 8.159 15.723)" class="colorfff svgShape"></rect><rect width="1.21" height="6.29" x="7.56" y="12.58" fill="#f9aa3a" rx=".6" transform="rotate(-45 8.153 15.723)" class="colorfff svgShape"></rect></g></g></svg></g></svg>